<?xml version="1.0" encoding="utf-8"?><svg viewBox="0 0 125 125" xmlns="http://www.w3.org/2000/svg" xmlns:xlink="http://www.w3.org/1999/xlink"><style>:root>svg{display:none}:root>svg:target{display:block}</style><svg viewBox="0 0 125 125" fill="none" id="coworking" xmlns="http://www.w3.org/2000/svg"><circle cx="62.5" cy="62.5" r="62.5" fill="#6172FF"/><path d="M71.027 88.498c0 5.165 8.166 7.335 8.166 7.335H46.256s8.166-2.17 8.166-7.335v-5.139h16.436l.169 5.139z" fill="#D0CFCE"/><path d="M90.826 83.333h-56.21a5.286 5.286 0 01-5.286-5.286V41.7a5.286 5.286 0 015.285-5.286h56.21a5.286 5.286 0 015.287 5.286v36.346a5.287 5.287 0 01-5.286 5.286z" fill="#9B9B9A"/><path d="M95.36 73.668L29.387 50.209v-9.852a2.783 2.783 0 013.714-2.622l62.259 22.14v13.794-.001z" fill="#fff"/><path d="M96.112 74.545s.175 5.057-1.614 7.114c-1.79 2.058-.752 1.671-3.672 1.671h-56.21c-2.92 0-4.338-1.929-4.338-2.546l-.948-6.24" fill="#D0CFCE"/><path d="M90.826 83.333h-56.21a5.286 5.286 0 01-5.286-5.286V41.7a5.286 5.286 0 015.285-5.286h56.21a5.286 5.286 0 015.287 5.286v36.346a5.287 5.287 0 01-5.286 5.286v0z" stroke="#000" stroke-width=".5" stroke-miterlimit="10" stroke-linecap="round" stroke-linejoin="round"/><path d="M96.112 74.545s.175 5.057-1.614 7.114c-1.79 2.058-.752 1.671-3.672 1.671h-56.21c-2.92 0-4.338-1.929-4.338-2.546l-.948-6.24" stroke="#000" stroke-width=".23" stroke-miterlimit="10" stroke-linecap="round" stroke-linejoin="round"/><path d="M90.826 83.333h-56.21a5.286 5.286 0 01-5.286-5.286V41.7a5.286 5.286 0 015.285-5.286h56.21a5.286 5.286 0 015.287 5.286v36.346a5.287 5.287 0 01-5.286 5.286v0zM32.512 75.513h60.416M69.98 88.498c0 5.166 9.207 7.335 9.207 7.335H46.25s9.208-2.17 9.208-7.335" stroke="#000" stroke-width=".5" stroke-miterlimit="10" stroke-linecap="round" stroke-linejoin="round"/></svg><svg viewBox="0 0 125 125" fill="none" id="home" xmlns="http://www.w3.org/2000/svg"><circle cx="62.5" cy="62.5" r="62.5" fill="#4B58F8"/><path d="M90.625 85.938h-56.25v-25L62.5 34.374l28.125 26.563v25z" fill="#E8EAF6"/><path d="M85.938 57.813L78.124 50V39.062h7.813v18.75zM34.375 85.938h56.25v7.812h-56.25v-7.813z" fill="#C5CAE9"/><path d="M62.5 31.719L31.25 60.78l3.125 3.438L62.5 38.125l28.125 26.094 3.125-3.438L62.5 31.72z" fill="#B71C1C"/><path d="M53.125 68.75h18.75v25h-18.75v-25z" fill="#D84315"/><path d="M57.813 51.563h9.374v9.374h-9.374v-9.374z" fill="#01579B"/><path d="M67.969 80.469c-.469 0-.781.312-.781.781v3.125c0 .469.312.781.78.781.47 0 .782-.312.782-.781V81.25c0-.469-.313-.781-.781-.781z" fill="#FF8A65"/></svg><svg viewBox="0 0 125 125" fill="none" id="sertifikat" xmlns="http://www.w3.org/2000/svg"><circle cx="62.5" cy="62.5" r="62.5" fill="#09CF83"/><g clip-path="url(#cclip0)"><path d="M99.237 29.642a2.528 2.528 0 00-1.823-.763H27.586a2.528 2.528 0 00-1.823.763A2.528 2.528 0 0025 31.465v54.31a2.528 2.528 0 00.763 1.824 2.528 2.528 0 001.823.763h68.535a3.88 3.88 0 003.879-3.88V31.466a2.526 2.526 0 00-.763-1.823z" fill="#F3D55B"/><path d="M100.001 31.465v53.018a3.87 3.87 0 01-1.138 2.741l-5.328-5.328V35.346l5.703-5.703c.49.48.766 1.137.763 1.823zM31.466 35.345v46.552l-5.703 5.702A2.528 2.528 0 0125 85.776v-54.31a2.528 2.528 0 01.763-1.824l5.703 5.703z" fill="#F0C419"/><path d="M98.863 87.224a3.87 3.87 0 01-2.742 1.138H27.587a2.528 2.528 0 01-1.823-.763l5.702-5.703h62.07l5.327 5.328z" fill="#F29C1F"/><path d="M31.465 35.345h62.069v46.552h-62.07V35.345z" fill="#ECF0F1"/><path d="M93.534 35.345s-62.07 0-62.07 46.552V35.345h62.07z" fill="#fff"/><path d="M71.553 44.397H53.449a1.293 1.293 0 110-2.587h18.104a1.293 1.293 0 010 2.587z" fill="#BDC3C7"/><path d="M58.621 72.845H40.518a1.293 1.293 0 010-2.586H58.62a1.293 1.293 0 010 2.586z" fill="#95A5A5"/><path d="M75.433 50.862H49.57a1.293 1.293 0 010-2.586h25.863a1.293 1.293 0 010 2.586z" fill="#BDC3C7"/><path d="M70.258 77.241v16.785a1.293 1.293 0 001.875 1.164l3.362-1.694a1.315 1.315 0 011.164 0l3.362 1.694a1.293 1.293 0 001.875-1.164V77.24H70.258z" fill="#FF5364"/><path d="M58.621 67.672c-3.166 0-6.279-.816-9.037-2.371a18.19 18.19 0 01-9.066 2.371 1.293 1.293 0 010-2.586c2.318.01 4.609-.493 6.708-1.475a6.14 6.14 0 01-2.373-4.248c0-.776.34-3.328 4.716-3.328s4.716 2.547 4.716 3.328a6.154 6.154 0 01-2.371 4.255c2.1.978 4.39 1.479 6.707 1.468a1.293 1.293 0 010 2.586zm-9.052-9.051c-.982 0-2.13.194-2.13.742s.581 1.653 2.12 2.837c1.376-1.053 2.14-2.153 2.14-2.837 0-.548-1.147-.742-2.13-.742z" fill="#95A5A5"/><path d="M88.362 68.319c0 1.49-2.784 2.415-3.322 3.712-.557 1.344.736 3.962-.277 4.975-1.012 1.013-3.63-.28-4.973.275-1.297.538-2.222 3.322-3.713 3.322-1.49 0-2.415-2.784-3.712-3.322-1.344-.557-3.962.736-4.975-.276-1.012-1.013.281-3.631-.275-4.974-.538-1.297-3.322-2.221-3.322-3.712s2.784-2.416 3.322-3.713c.557-1.343-.736-3.962.277-4.974 1.012-1.013 3.63.28 4.973-.276 1.293-.538 2.222-3.322 3.713-3.322 1.49 0 2.415 2.785 3.712 3.322 1.343.558 3.962-.735 4.974.277 1.013 1.013-.28 3.631.276 4.973.538 1.297 3.322 2.222 3.322 3.713z" fill="#FB7B76"/><path d="M76.079 72.845a4.526 4.526 0 100-9.052 4.526 4.526 0 000 9.052z" fill="#DF4D60"/></g><defs><clipPath id="cclip0"><path fill="#fff" transform="translate(25 25)" d="M0 0h75v75H0z"/></clipPath></defs></svg><svg viewBox="0 0 125 125" fill="none" id="telegram" xmlns="http://www.w3.org/2000/svg"><circle cx="62.5" cy="62.5" r="62.5" fill="#00A3FF"/><path d="M96.818 34.32L85.46 94.78s-1.588 4.192-5.957 2.18L53.29 75.745l-9.531-4.863-16.045-5.703s-2.462-.922-2.7-2.934c-.24-2.013 2.78-3.103 2.78-3.103l63.781-26.414s5.243-2.432 5.243 1.593" fill="#fff"/><path d="M51.285 94.1s-.765-.076-1.72-3.262c-.952-3.187-5.797-19.957-5.797-19.957L82.29 45.053s2.224-1.426 2.145 0c0 0 .397.252-.795 1.425-1.19 1.175-30.262 28.762-30.262 28.762" fill="#D2E5F1"/><path d="M63.35 83.878l-10.368 9.98s-.81.649-1.697.242l1.986-18.536" fill="#B5CFE4"/></svg><svg viewBox="0 0 125 125" fill="none" id="video" xmlns="http://www.w3.org/2000/svg"><circle cx="62.5" cy="62.5" r="62.5" fill="#01F495"/><g clip-path="url(#eclip0)"><path d="M99.834 44.124c0 4.09-3.872 7.4-8.648 7.4H72.782c-4.78 0-8.653-3.31-8.653-7.4 0-4.089 3.873-7.405 8.653-7.405h18.404c4.777 0 8.648 3.316 8.648 7.405z" fill="#A7A8AC"/><path d="M87.32 43.37c-3.974-.004-10.71.551-14.144-2.093-1.83-1.412-2.83-2.789-3.242-4.113-3.377 1.005-5.813 3.728-5.813 6.961 0 4.09 3.873 7.4 8.653 7.4h18.404c4.776 0 8.648-3.31 8.648-7.4 0-.373-.063-.725-.124-1.083-4.11.29-8.227.328-12.386.328" fill="#929497"/><path d="M93.109 48.473H36.912c-.467 0-.853.27-.853.6v38.52c0 .324.386.594.853.594h56.196c.252 0 .445-.063.581-.159 0 0 .008-.01.019-.015l.024-.025a.472.472 0 00.227-.396V49.071c0-.328-.387-.598-.851-.598" fill="#A7A8AC"/><path d="M90.805 50.534H39.719c-.423 0-.776.241-.776.532v34.152c0 .284.353.526.776.526h51.086c.227 0 .406-.054.522-.14 0 0 .014-.015.02-.015.009 0 .019-.014.024-.02a.42.42 0 00.208-.352V51.065c0-.29-.357-.531-.774-.531z" fill="#E7E6E6"/><path d="M51.171 48.46H29.415a9.12 9.12 0 00-3.938.915v12.468a9.116 9.116 0 003.938.912h21.756c4.532 0 8.203-3.2 8.203-7.15 0-3.944-3.675-7.144-8.203-7.144z" fill="#E7E6E6"/><path d="M80.012 62.962h-36.18c-.3 0-.549.164-.549.363v23.086c0 .193.249.358.549.358h36.19a.667.667 0 00.374-.096l.011-.009.018-.015c.085-.055.146-.136.146-.238V63.325c0-.2-.25-.363-.548-.363" fill="#A7A8AC"/><path d="M77.277 64.407H46.56c-.253 0-.465.145-.465.314v20.205c0 .17.212.31.465.31h30.728a.568.568 0 00.317-.083l.01-.009s.01-.005.015-.01c.073-.049.126-.12.126-.208V64.721c0-.169-.216-.314-.468-.314" fill="#243438"/><path d="M56.368 69.164H50.54c-.048 0-.089.092-.089.203V82.54c0 .113.041.204.09.204h5.827c.026 0 .046-.02.06-.053 0 0 .002 0 .002-.006l.002-.009a.308.308 0 00.025-.136V69.367c0-.111-.041-.203-.089-.203zM72.26 70.294h-5.827c-.05 0-.09.053-.09.112v6.97c0 .058.04.106.09.106h5.828c.025 0 .046-.009.06-.028h.003l.002-.006c.015-.014.025-.042.025-.072V70.406c0-.058-.041-.112-.09-.112z" fill="#E7E6E6"/><path d="M81.857 45.855h-8.225c-.068 0-.126.058-.126.116v7.507c0 .063.06.116.126.116h8.225a.115.115 0 00.085-.034h.005l.002-.005a.104.104 0 00.034-.077V45.97c0-.058-.058-.116-.126-.116z" fill="#BB253F"/><path d="M80.837 44.922h-8.225c-.066 0-.124.057-.124.117v7.507c0 .062.059.116.124.116h8.226a.115.115 0 00.084-.034h.005l.002-.005a.106.106 0 00.034-.077V45.04c0-.06-.058-.117-.126-.117z" fill="#DF2C43"/><path d="M29.436 67.148V45.44c0-.175-.032-.33-.068-.33h-4.301c-.035 0-.067.154-.067.329v21.709c0 .08.007.158.022.236.01.05.026.092.044.092h4.302c.036 0 .068-.154.068-.328z" fill="#243438"/></g><defs><clipPath id="eclip0"><path fill="#fff" transform="translate(25 25)" d="M0 0h75v75H0z"/></clipPath></defs></svg></svg>